<?xml version="1.0" encoding="UTF-8"?>
<svg version="1.1" xmlns="http://www.w3.org/2000/svg" width="500" height="500">
<path d="M0 0 C6.6 0 13.2 0 20 0 C20 18.15 20 36.3 20 55 C28.25 55 36.5 55 45 55 C45 36.85 45 18.7 45 0 C51.6 0 58.2 0 65 0 C65 18.15 65 36.3 65 55 C72.92 55 80.84 55 89 55 C89 36.85 89 18.7 89 0 C95.6 0 102.2 0 109 0 C109 18.15 109 36.3 109 55 C117.58 55 126.16 55 135 55 C135 36.85 135 18.7 135 0 C141.6 0 148.2 0 155 0 C155 18.15 155 36.3 155 55 C162.92 55 170.84 55 179 55 C179 36.85 179 18.7 179 0 C185.6 0 192.2 0 199 0 C199 18.15 199 36.3 199 55 C201.97 55.33 204.94 55.66 208 56 C215.96409906 57.94910846 221.93635029 61.56917901 228 67 C228.62777344 67.5465625 229.25554687 68.093125 229.90234375 68.65625 C239.58518295 77.63989075 241.69598769 86.78395077 245 100 C262.82 100.33 280.64 100.66 299 101 C299 107.6 299 114.2 299 121 C281.18 121 263.36 121 245 121 C245 128.92 245 136.84 245 145 C262.82 145 280.64 145 299 145 C299 151.6 299 158.2 299 165 C281.18 165.33 263.36 165.66 245 166 C245 173.92 245 181.84 245 190 C262.82 190.33 280.64 190.66 299 191 C299 197.27 299 203.54 299 210 C281.18 210.33 263.36 210.66 245 211 C245 218.59 245 226.18 245 234 C262.82 234.33 280.64 234.66 299 235 C299 241.6 299 248.2 299 255 C281.18 255 263.36 255 245 255 C245 262.92 245 270.84 245 279 C262.82 279 280.64 279 299 279 C299 285.6 299 292.2 299 299 C281.18 299.33 263.36 299.66 245 300 C243.02 307.92 243.02 307.92 241 316 C233.19211505 330.54409942 222.98900929 339.05113625 207.3828125 344.19140625 C204 345 204 345 199 345 C199 363.15 199 381.3 199 400 C192.4 400 185.8 400 179 400 C179 381.85 179 363.7 179 345 C171.08 345 163.16 345 155 345 C155 363.15 155 381.3 155 400 C148.4 400 141.8 400 135 400 C135 381.85 135 363.7 135 345 C126.42 345 117.84 345 109 345 C109 363.15 109 381.3 109 400 C102.4 400 95.8 400 89 400 C89 381.85 89 363.7 89 345 C81.08 345 73.16 345 65 345 C65 363.15 65 381.3 65 400 C58.4 400 51.8 400 45 400 C45 381.85 45 363.7 45 345 C36.75 345 28.5 345 20 345 C20 363.15 20 381.3 20 400 C13.4 400 6.8 400 0 400 C0 381.85 0 363.7 0 345 C-3.3 344.67 -6.6 344.34 -10 344 C-21.9527413 340.746763 -32.69891424 332.70798009 -39 322 C-42.85813796 314.65013942 -46 307.40681527 -46 299 C-64.48 299 -82.96 299 -102 299 C-102 292.4 -102 285.8 -102 279 C-83.52 279 -65.04 279 -46 279 C-46 271.08 -46 263.16 -46 255 C-64.48 255 -82.96 255 -102 255 C-102 248.4 -102 241.8 -102 235 C-83.52 235 -65.04 235 -46 235 C-46 226.75 -46 218.5 -46 210 C-64.48 210 -82.96 210 -102 210 C-102 203.73 -102 197.46 -102 191 C-83.52 191 -65.04 191 -46 191 C-46 182.42 -46 173.84 -46 165 C-64.48 165 -82.96 165 -102 165 C-102 158.4 -102 151.8 -102 145 C-83.52 145 -65.04 145 -46 145 C-46 137.08 -46 129.16 -46 121 C-64.48 121 -82.96 121 -102 121 C-102 114.4 -102 107.8 -102 101 C-83.52 101 -65.04 101 -46 101 C-45.67 98.03 -45.34 95.06 -45 92 C-40.62138712 77.76514699 -32.39216464 67.07180279 -19.5 59.625 C-12.96240771 56.25548465 -7.3236399 55 0 55 C0 36.85 0 18.7 0 0 Z M-18.3125 85.25 C-23.59460102 92.20414783 -25.60450946 98.80815937 -25.45410156 107.46704102 C-25.45468567 108.36568375 -25.45526978 109.26432648 -25.45587158 110.19020081 C-25.45310895 113.12851059 -25.42210403 116.06577609 -25.390625 119.00390625 C-25.38315612 121.05370022 -25.37746625 123.10350137 -25.37347412 125.15330505 C-25.3582688 130.52430249 -25.31903115 135.89486094 -25.2746582 141.26568604 C-25.22636383 147.72266825 -25.2081472 154.179798 -25.18484497 160.63690948 C-25.14617698 170.42491078 -25.06948724 180.21195059 -25 190 C-11.47 190 2.06 190 16 190 C16 175.81 16 161.62 16 147 C13.69 145.68 11.38 144.36 9 143 C4.41526676 138.57336101 1.53188028 133.37124676 1 127 C0.9190683 119.10337866 2.11420809 112.14422937 7.64453125 106.24609375 C13.80504689 100.67612863 19.77633068 99.13501547 28 99 C34.99203437 99.51921047 39.94903409 102.20100971 45 107 C49.55351752 112.6319822 51.48523721 118.62175674 51.24609375 125.89453125 C50.3878159 133.23757507 47.51582294 139.06099514 42 144 C40.98510498 144.49556396 39.97020996 144.99112793 38.92456055 145.50170898 C35.90550642 147.6026933 35.90550642 147.6026933 35.47068787 149.98164368 C35.30425152 152.53334982 35.32593361 155.02241588 35.4140625 157.578125 C35.42679703 158.96798615 35.42679703 158.96798615 35.43978882 160.38592529 C35.47334368 163.34180595 35.54862588 166.29494585 35.625 169.25 C35.65509695 171.2551689 35.68247323 173.26038061 35.70703125 175.265625 C35.77314188 180.17813737 35.87667755 185.08860425 36 190 C37.75376953 190.07347656 37.75376953 190.07347656 39.54296875 190.1484375 C41.09116804 190.22350171 42.63934401 190.29904795 44.1875 190.375 C44.95642578 190.4059375 45.72535156 190.436875 46.51757812 190.46875 C51.83071798 190.7423881 56.13751622 191.08337425 60.015625 195.07421875 C62.57149037 198.8426108 64.6681882 202.76754646 66.75 206.8125 C67.16121094 207.60076172 67.57242188 208.38902344 67.99609375 209.20117188 C69.00225178 211.13159136 70.00179969 213.06545367 71 215 C73.06063706 211.90904441 73.63211218 209.90882228 74.43286133 206.32275391 C74.69686234 205.15789459 74.96086334 203.99303528 75.23286438 202.7928772 C75.51308945 201.53349335 75.79331451 200.2741095 76.08203125 198.9765625 C76.38001801 197.66979159 76.67908105 196.36326568 76.97917175 195.05697632 C78.25155711 189.51464923 79.51396815 183.97020615 80.7512207 178.41992188 C81.50948112 175.02167839 82.28553953 171.62791249 83.07294273 168.23630905 C83.51193317 166.32219216 83.93129525 164.40360765 84.35029602 162.48501587 C86.8885719 151.61408886 86.8885719 151.61408886 92 148 C95.49561234 147.01055293 98.87136249 147.39559852 102.10594177 149.12776184 C104.68469434 151.67680647 105.24553592 153.97720261 106.24243164 157.45581055 C106.5286866 158.43205635 106.5286866 158.43205635 106.82072449 159.42802429 C107.44739061 161.57726237 108.05364095 163.73171606 108.66015625 165.88671875 C109.09431238 167.38823236 109.52983455 168.8893516 109.96665955 170.39009094 C111.11396356 174.34384263 112.24449034 178.30219172 113.37103271 182.26190186 C114.95618552 187.82245952 116.5635422 193.3766441 118.16905212 198.93135071 C119.0232721 201.88682509 119.87096467 204.84404681 120.71339417 207.80290222 C122.57287156 214.30580069 124.47594462 220.71998818 127 227 C129.01764062 223.97353906 129.78685383 221.70457809 130.76953125 218.23046875 C131.26743164 216.52600586 131.26743164 216.52600586 131.77539062 214.78710938 C132.46278465 212.40129546 133.14256977 210.01327518 133.81445312 207.62304688 C137.12389158 196.38620114 137.12389158 196.38620114 142 192 C145.72777938 190.60829705 149.68632717 190.82629704 153.61425781 190.79467773 C154.37562042 190.78477814 155.13698303 190.77487854 155.92141724 190.76467896 C158.43195512 190.73315224 160.94251191 190.70834153 163.453125 190.68359375 C165.19619227 190.66301659 166.93925464 190.64201992 168.68231201 190.62062073 C173.26566592 190.56547871 177.84906428 190.51603477 182.43249512 190.46777344 C187.11128689 190.4175009 191.79001428 190.36184488 196.46875 190.30664062 C205.6457783 190.19915533 214.82286256 190.09768903 224 190 C224.09296518 178.58588939 224.1638992 167.17186989 224.20724869 155.75745678 C224.2280616 150.45641324 224.25626361 145.15563006 224.30175781 139.85473633 C224.34544085 134.73241453 224.36918438 129.61034208 224.37950897 124.48784828 C224.38686019 122.54034822 224.4012148 120.59286073 224.42292023 118.64546776 C224.56351876 105.49999232 224.60601195 93.76456228 214.91015625 83.71875 C203.81952661 73.73945135 190.59746701 74.70671103 176.49023438 74.74121094 C174.62323368 74.73849734 172.75623406 74.73493434 170.88923645 74.73059082 C165.84177057 74.72150845 160.79438687 74.7249939 155.74691963 74.73134899 C150.45184237 74.73643053 145.15677189 74.73171156 139.86169434 74.72857666 C130.97142277 74.72494329 122.08118448 74.72971961 113.19091797 74.73925781 C102.92872052 74.75014114 92.66660255 74.74661512 82.40440702 74.735605 C73.5760898 74.72651421 64.74779643 74.72525561 55.91947603 74.73048234 C50.65432718 74.73359219 45.38921563 74.73403852 40.12406921 74.72740936 C35.17294807 74.72161045 30.2219289 74.72567925 25.27081871 74.73719788 C23.45927283 74.73983087 21.64771829 74.73910276 19.83617592 74.73467255 C-1.09909761 74.49923837 -1.09909761 74.49923837 -18.3125 85.25 Z M16 115 C13.36542205 118.54021412 12.77088736 121.25231844 13 125.5625 C13.68902279 130.0600773 15.34889755 132.19799115 19 135 C22.54216451 137.47951515 25.75718373 137.43891203 30 137 C33.60937158 135.19531421 35.58066396 133.58165967 37.9375 130.3125 C39.34391381 125.92779812 39.34301793 122.41161043 38 118 C34.64106477 113.73324443 31.56162111 111.34154948 26.1875 110.625 C22.04956453 111.11181594 19.23390507 112.38518003 16 115 Z M96 198 C95.868853 198.56518845 95.73770599 199.13037689 95.60258484 199.71269226 C94.23380972 205.6038137 92.85294813 211.4920083 91.46508789 217.37866211 C90.94897016 219.57487674 90.43592089 221.77181485 89.92602539 223.96948242 C89.19185296 227.13135648 88.44662292 230.29044981 87.69921875 233.44921875 C87.47409103 234.42960617 87.24896332 235.40999359 87.01701355 236.42008972 C84.39168329 247.40554447 84.39168329 247.40554447 79 251 C74.94487789 251.45907043 72.64278648 251.34216731 69.01611328 249.41162109 C65.59931439 246.67962017 63.90730735 243.89960545 62.0546875 240.0390625 C61.71752716 239.37087494 61.38036682 238.70268738 61.0329895 238.01425171 C59.96526007 235.89164064 58.91939379 233.75917502 57.875 231.625 C56.819393 229.50025878 55.75928964 227.3778711 54.69558716 225.25717163 C54.03767665 223.9421214 53.38503985 222.62441406 52.73873901 221.30361938 C50.74916147 217.28507927 48.84986165 213.46931535 46 210 C42.74955161 209.13257883 42.74955161 209.13257883 39.02832031 209.31884766 C38.3352327 209.3179715 37.64214508 209.31709534 36.92805481 209.31619263 C34.64358668 209.32036364 32.36207802 209.36698204 30.078125 209.4140625 C28.49202071 209.42525663 26.90589565 209.4337958 25.31976318 209.43978882 C21.15006987 209.46267082 16.98163563 209.52158641 12.81243896 209.5880127 C8.55612216 209.64945013 4.29960139 209.67680681 0.04296875 209.70703125 C-8.30526457 209.77133223 -16.65247556 209.87370171 -25 210 C-25.09285421 221.83980618 -25.16384335 233.67952512 -25.20724869 245.51962185 C-25.22808558 251.0180139 -25.25633212 256.51615605 -25.30175781 262.0144043 C-25.34535439 267.32474777 -25.36916641 272.6348515 -25.37950897 277.94536018 C-25.38687556 279.96708002 -25.40126069 281.98878736 -25.42292023 284.01040459 C-25.45213775 286.85154008 -25.45594835 289.69169641 -25.45410156 292.53295898 C-25.46848267 293.36086945 -25.48286377 294.18877991 -25.49768066 295.04177856 C-25.4394316 303.37315524 -22.35478484 310.33812403 -16.68359375 316.43359375 C-5.7473374 326.60862576 8.63883215 325.29306154 22.62329102 325.25878906 C24.49043921 325.26150329 26.35758633 325.26506663 28.22473145 325.26940918 C33.26800607 325.27848349 38.31119835 325.27500963 43.35447431 325.26865101 C48.64687643 325.26356601 53.93927178 325.26828932 59.23167419 325.27142334 C68.11596942 325.2750554 77.00023132 325.27028353 85.88452148 325.26074219 C96.13935533 325.24985576 106.39410965 325.25338767 116.64894158 325.264395 C125.47303272 325.27348555 134.29709999 325.2747446 143.1211943 325.26951766 C148.3829748 325.26640812 153.64471798 325.2659607 158.90649605 325.27259064 C163.8535266 325.27838934 168.80045508 325.27432114 173.74747467 325.26280212 C175.55740884 325.26016916 177.36735167 325.26089719 179.17728233 325.26532745 C198.70114224 325.45217453 198.70114224 325.45217453 215.16796875 316.0234375 C225.58885607 305.27986332 224.41015967 292.61278069 224.29296875 278.5546875 C224.28736548 276.57358116 224.28309884 274.59247064 224.28010559 272.61135864 C224.26871437 267.4262318 224.23929703 262.24136167 224.20599365 257.05633545 C224.16973816 250.81955265 224.15610435 244.58268347 224.13863373 238.3458252 C224.10965585 228.89703888 224.05212873 219.44881458 224 210 C210.14 210 196.28 210 182 210 C181.814375 216.31125 181.62875 222.6225 181.4375 229.125 C181.35556396 231.1064502 181.27362793 233.08790039 181.18920898 235.12939453 C180.64466166 243.80043394 180.64466166 243.80043394 183.92041016 251.41625977 C186.2243824 252.89034187 188.48621217 253.9387527 191 255 C193.15625 257.44921875 193.15625 257.44921875 194.5 259.6875 C194.9640625 260.43386719 195.428125 261.18023437 195.90625 261.94921875 C199.24317206 268.20594761 199.16111655 276.17820831 197.12890625 282.8671875 C194.14404761 289.30665302 190.10863263 293.94213565 183.73828125 297.1328125 C176.94837799 299.28310996 167.67226896 299.35137144 161.25 296.0625 C160.1775 295.381875 159.105 294.70125 158 294 C157.01 293.67 156.02 293.34 155 293 C153.9453125 291.1484375 153.9453125 291.1484375 153 289 C152.29875 287.88625 151.5975 286.7725 150.875 285.625 C147.62178486 279.08187933 147.94922132 271.28394384 149.66015625 264.30859375 C152.0207786 258.26907943 156.19663044 253.90168478 162 251 C162 237.47 162 223.94 162 210 C159.36 210 156.72 210 154 210 C151.56023521 216.27897682 149.52025644 222.62532487 147.56640625 229.0703125 C146.911249 231.20456272 146.25563635 233.3386732 145.59960938 235.47265625 C144.57704693 238.80674606 143.55745761 242.14163201 142.5456543 245.47900391 C141.56146227 248.72057174 140.56494659 251.95814031 139.56640625 255.1953125 C139.26835587 256.18918976 138.97030548 257.18306702 138.66322327 258.20706177 C137.04380146 263.42088265 135.41769166 267.71066756 132 272 C128.86128812 273.56935594 126.46144178 273.35201103 123 273 C118.63766514 269.47267927 117.08884431 266.35037802 115.59643555 261.0065918 C115.400634 260.32311172 115.20483246 259.63963165 115.00309753 258.93544006 C114.36519957 256.69414718 113.75089601 254.44711589 113.13671875 252.19921875 C112.69690604 250.63653993 112.25562527 249.0742736 111.8129425 247.5124054 C110.65576281 243.41471294 109.51853119 239.31174412 108.38543701 235.20733643 C107.22408855 231.01439623 106.04386031 226.82678143 104.86523438 222.63867188 C102.55836633 214.43086112 100.27255592 206.2173768 98 198 C97.34 198 96.68 198 96 198 Z M162 267 C160.15022451 270.69955099 160.52943089 274.96200834 161 279 C163.46632241 283.08218882 166.11129246 285.44197277 170.75 286.8125 C175.91039853 287.1102153 179.51820024 285.28682611 183.375 281.9375 C186.25491796 278.50375167 186.44698372 275.76930773 186.42578125 271.39453125 C185.69260603 267.27126142 183.08526198 264.68561665 180 262 C172.86177989 258.43088994 166.84847101 261.43003033 162 267 Z " fill="#053863" transform="translate(151,50)"/>
<path d="M0 0 C5.58974203 5.74501264 7.97387429 12.17061428 8.5 20.0625 C8.36549937 27.20448323 6.04205667 33.54390633 1.08984375 38.73828125 C-5.7230164 44.56754376 -12.45793405 46.15033309 -21.34375 45.79296875 C-28.82032166 44.73836059 -34.94398698 41.34248577 -39.56640625 35.33203125 C-43.32723229 28.91504424 -44.92836098 21.41873093 -43.24609375 14.12890625 C-40.88312106 6.1218045 -37.18135587 0.40732875 -29.75 -3.6875 C-19.38485064 -8.62328541 -9.19408184 -5.64182295 0 0 Z M-29.6875 14.0625 C-30.99970514 18.07630395 -31.07017027 21.33617877 -29.75 25.3125 C-27.91831486 28.2674485 -25.9133409 30.73082955 -22.75 32.3125 C-18.4581916 32.9323407 -14.42940586 33.26356138 -10.5703125 31.078125 C-6.51712867 27.68085059 -4.95012888 25.43386609 -4.4375 20 C-4.81209146 15.57982079 -5.91385987 13.68520719 -8.75 10.3125 C-12.21115868 7.4282011 -15.23835145 6.7687162 -19.7578125 6.96484375 C-24.41662181 7.77785165 -27.04909777 10.31767103 -29.6875 14.0625 Z " fill="#063863" transform="translate(194.75,303.6875)"/>
<path d="M0 0 C6.83104571 6.37079795 9.9723729 11.433657 10.375 20.8125 C10.2404528 28.04216952 8.31106435 33.1753658 3.75 38.75 C-0.92534559 42.57528275 -5.7906155 46.52235504 -12 47 C-13.0725 47.0825 -14.145 47.165 -15.25 47.25 C-23.30462499 46.713025 -30.31360296 43.8223761 -36 38 C-41.52686587 30.71580542 -42.15519947 22.8918565 -41 14 C-40.06661038 10.97240627 -38.80590388 8.58888318 -37 6 C-36.46375 5.113125 -35.9275 4.22625 -35.375 3.3125 C-25.91643663 -5.89715381 -10.86133674 -7.95049849 0 0 Z M-26.375 13.0625 C-28.75477223 17.36439595 -28.89963018 21.1942832 -28 26 C-26.34569768 29.19744599 -24.02685008 31.24697661 -21.125 33.375 C-16.44940611 34.75017467 -13.07652879 34.55896687 -8.75 32.3125 C-5.32432087 29.43181528 -3.39873116 27.39238695 -2.6484375 22.890625 C-2.38596535 18.77395662 -2.61057518 15.87917296 -5.1875 12.5625 C-8.59220374 9.46043659 -10.91460525 8.2673583 -15.4375 7.6875 C-19.93211481 8.23562376 -22.99393022 10.12630782 -26.375 13.0625 Z " fill="#073862" transform="translate(340,153)"/>
<path d="M0 0 C1.23570581 -0.00233999 1.23570581 -0.00233999 2.49637538 -0.00472724 C5.24848187 -0.00870634 8.0005329 -0.00555962 10.75263977 -0.00241089 C12.72892794 -0.00376627 14.70521586 -0.00554697 16.6815033 -0.00772095 C22.042755 -0.01227811 27.40398744 -0.01051299 32.76523948 -0.00734186 C38.37324815 -0.00481048 43.98125518 -0.00715788 49.58926392 -0.00872803 C59.00358883 -0.01054699 68.41790589 -0.00815009 77.83222961 -0.00338745 C88.72498346 0.00205938 99.6177186 0.00028836 110.510472 -0.00521386 C119.8583348 -0.0097471 129.20619197 -0.01039464 138.55405551 -0.00777519 C144.13928809 -0.00621419 149.72451186 -0.00601391 155.30974388 -0.00931168 C160.55706156 -0.0121936 165.80435502 -0.01020874 171.05167007 -0.00441742 C172.98064572 -0.00309176 174.9096234 -0.00348066 176.83859825 -0.00568008 C179.46469226 -0.00839904 182.09070791 -0.00500129 184.71679688 0 C185.87067092 -0.00334608 185.87067092 -0.00334608 187.04785556 -0.00675976 C190.19359928 0.00491861 192.6601297 0.12438588 195.66792297 1.12698364 C196.85542297 3.18948364 196.85542297 3.18948364 197.66792297 5.12698364 C196.88660444 4.91437236 196.10528591 4.70176107 195.30029106 4.48270702 C184.73427909 1.8873131 174.72456207 1.71997716 163.90278625 1.78640747 C161.95000725 1.78725543 159.9972273 1.78677532 158.04444885 1.78507996 C152.78502953 1.78422516 147.52581874 1.80176676 142.26644754 1.82280183 C136.75452154 1.84165527 131.24258987 1.84332587 125.7306366 1.84687805 C115.31167955 1.85617318 104.89281781 1.88075246 94.47390258 1.91092652 C82.60440971 1.94454966 70.73491209 1.96097638 58.86538339 1.97601283 C34.46617723 2.00730444 10.06705546 2.06001533 -14.33207703 2.12698364 C-14.33207703 1.79698364 -14.33207703 1.46698364 -14.33207703 1.12698364 C-9.53211892 0.17432099 -4.8751566 -0.01426138 0 0 Z " fill="#123553" transform="translate(162.3320770263672,123.87301635742188)"/>
<path d="M0 0 C13.86 0 27.72 0 42 0 C42 0.33 42 0.66 42 1 C28.47 1 14.94 1 1 1 C1 7.331875 1 13.66375 1 20.1875 C0.979375 22.1780542 0.95875 24.1686084 0.9375 26.21948242 C0.95519075 27.80651601 0.97582689 29.39352067 1 30.98046875 C0.98066406 31.79696899 0.96132813 32.61346924 0.94140625 33.45471191 C1.00086115 35.88753229 1.13069445 37.724184 2 40 C3.91904812 41.72560108 5.78392733 42.85691353 8.0841217 44.01849365 C10.53574488 45.27446263 11.86619702 46.82350454 13.4375 49.0625 C13.91058594 49.71347656 14.38367188 50.36445313 14.87109375 51.03515625 C16.01751377 53.03048245 16.56415349 54.75063122 17 57 C16.34 57 15.68 57 15 57 C14.525625 56.175 14.05125 55.35 13.5625 54.5 C13.046875 53.675 12.53125 52.85 12 52 C11.01 52 10.02 52 9 52 C8.34 50.68 7.68 49.36 7 48 C6.34 48 5.68 48 5 48 C5 47.01 5 46.02 5 45 C4.38125 44.731875 3.7625 44.46375 3.125 44.1875 C1 43 1 43 -1 40 C-1.20254517 38.12068176 -1.20254517 38.12068176 -1.13525391 35.98754883 C-1.11470947 35.175802 -1.09416504 34.36405518 -1.07299805 33.52770996 C-1.04117432 32.67938599 -1.00935059 31.83106201 -0.9765625 30.95703125 C-0.95489014 30.17372437 -0.93321777 29.39041748 -0.91088867 28.58337402 C-0.82693876 25.65940155 -0.72488328 22.73597156 -0.625 19.8125 C-0.315625 10.0053125 -0.315625 10.0053125 0 0 Z " fill="#1A3F5E" transform="translate(332,259)"/>
<path d="M0 0 C6.6 0 13.2 0 20 0 C20 17.82 20 35.64 20 54 C19.67 54 19.34 54 19 54 C19 37.17 19 20.34 19 3 C13.27287157 1.09095719 7.02355259 1.40157017 1 1 C1 18.49 1 35.98 1 54 C0.67 54 0.34 54 0 54 C0 36.18 0 18.36 0 0 Z " fill="#133959" transform="translate(240,50)"/>
<path d="M0 0 C18.15 0 36.3 0 55 0 C55 6.6 55 13.2 55 20 C37.18 20 19.36 20 1 20 C1 19.67 1 19.34 1 19 C18.49 19 35.98 19 54 19 C54.83932903 9.66996836 54.83932903 9.66996836 52 2 C50.37420782 1.87718048 48.74322996 1.82217496 47.11303711 1.79467773 C46.07203354 1.77473251 45.03102997 1.75478729 43.95848083 1.73423767 C42.8262056 1.71752518 41.69393036 1.70081268 40.52734375 1.68359375 C39.37456436 1.66281265 38.22178497 1.64203156 37.03407288 1.62062073 C33.33527843 1.55500036 29.63641041 1.49618245 25.9375 1.4375 C23.43684121 1.39432665 20.93618999 1.35071276 18.43554688 1.30664062 C12.29044338 1.19930632 6.14526596 1.09756357 0 1 C0 0.67 0 0.34 0 0 Z " fill="#1C3D59" transform="translate(395,285)"/>
<path d="M0 0 C18.15 0 36.3 0 55 0 C55 4.62 55 9.24 55 14 C54.67 14 54.34 14 54 14 C53.505 8.06 53.505 8.06 53 2 C50.69829834 2.01571045 50.69829834 2.01571045 48.35009766 2.03173828 C42.67352621 2.06785531 36.99696497 2.0908702 31.3203125 2.10986328 C28.86033421 2.11993983 26.40036794 2.13360131 23.94042969 2.15087891 C20.41077715 2.17505461 16.88128253 2.1864664 13.3515625 2.1953125 C12.24632233 2.20563507 11.14108215 2.21595764 10.00234985 2.22659302 C8.98144257 2.22674408 7.96053528 2.22689514 6.90869141 2.22705078 C6.00712311 2.231492 5.10555481 2.23593323 4.17666626 2.24050903 C2 2 2 2 0 0 Z " fill="#133A5B" transform="translate(395,195)"/>
<path d="M0 0 C17.49 0 34.98 0 53 0 C53 0.33 53 0.66 53 1 C36.5 1.33 20 1.66 3 2 C2.67 6.29 2.34 10.58 2 15 C1.67 16.65 1.34 18.3 1 20 C0.67 20 0.34 20 0 20 C0 13.4 0 6.8 0 0 Z " fill="#1B3A53" transform="translate(49,329)"/>
<path d="M0 0 C0.91120605 0.01047363 1.82241211 0.02094727 2.76123047 0.03173828 C3.74736328 0.03818359 4.73349609 0.04462891 5.74951172 0.05126953 C7.29832031 0.07640625 7.29832031 0.07640625 8.87841797 0.10205078 C9.91869141 0.11107422 10.95896484 0.12009766 12.03076172 0.12939453 C14.60520889 0.15301331 17.17920009 0.18594929 19.75341797 0.22705078 C20.76644059 3.26611865 20.84423129 5.17083932 20.77514648 8.34106445 C20.74500206 9.90234322 20.74500206 9.90234322 20.71424866 11.49516296 C20.67369606 13.17809196 20.67369606 13.17809196 20.63232422 14.89501953 C20.60871323 16.04496902 20.58510223 17.19491852 20.56077576 18.37971497 C20.48410951 22.05811822 20.40009751 25.73631253 20.31591797 29.41455078 C20.26270028 31.90607696 20.20995986 34.39761339 20.15771484 36.88916016 C20.0284903 43.00192008 19.89323187 49.1145244 19.75341797 55.22705078 C20.41341797 55.22705078 21.07341797 55.22705078 21.75341797 55.22705078 C21.75341797 55.88705078 21.75341797 56.54705078 21.75341797 57.22705078 C20.76341797 57.22705078 19.77341797 57.22705078 18.75341797 57.22705078 C18.75341797 39.07705078 18.75341797 20.92705078 18.75341797 2.22705078 C11.16341797 2.22705078 3.57341797 2.22705078 -4.24658203 2.22705078 C-2.24658203 0.22705078 -2.24658203 0.22705078 0 0 Z " fill="#16385B" transform="translate(311.24658203125,392.77294921875)"/>
<path d="M0 0 C1.03179339 0.96716204 2.0426267 1.9591175 3 3 C0.525 2.505 0.525 2.505 -2 2 C-2 1.34 -2 0.68 -2 0 C-3.0725 -0.144375 -4.145 -0.28875 -5.25 -0.4375 C-9 -1 -9 -1 -11 -1.5625 C-16.89803741 -2.85269568 -22.37576472 -1.8424219 -28 0 C-28.33 0.99 -28.66 1.98 -29 3 C-29.97648017 4.02297922 -30.98131338 5.01904252 -32 6 C-35.36961717 9.79081932 -37.16963283 13.33256371 -39 18 C-39.33 18 -39.66 18 -40 18 C-39.71939369 11.40575175 -37.19388963 7.04439872 -33 2 C-23.45817005 -5.75273683 -10.44656889 -6.63168598 0 0 Z " fill="#133856" transform="translate(192,302)"/>
<path d="M0 0 C2.08410658 0.08733973 4.16734669 0.19552278 6.25 0.3125 C7.99023438 0.39951172 7.99023438 0.39951172 9.765625 0.48828125 C13.25480163 1.04031282 14.52062719 1.54965029 17 4 C17.48101807 6.44877625 17.48101807 6.44877625 17.45410156 9.3894043 C17.45364838 11.04077644 17.45364838 11.04077644 17.45318604 12.72550964 C17.43254089 13.91308365 17.41189575 15.10065765 17.390625 16.32421875 C17.38496521 17.54075638 17.37930542 18.75729401 17.37347412 20.01069641 C17.35105034 23.90336144 17.30084013 27.7951123 17.25 31.6875 C17.22994289 34.32355443 17.21169075 36.95962327 17.1953125 39.59570312 C17.15116572 46.06411498 17.08419287 52.53199219 17 59 C16.34 59 15.68 59 15 59 C15 40.85 15 22.7 15 4 C11.7 3.67 8.4 3.34 5 3 C1.875 1.9375 1.875 1.9375 0 1 C0 0.67 0 0.34 0 0 Z " fill="#143854" transform="translate(136,391)"/>
<path d="M0 0 C1.67654729 0.27942455 3.34259285 0.62331656 5 1 C5.825 1.0825 6.65 1.165 7.5 1.25 C10.97208116 2.29162435 12.60379339 4.34474403 15 7 C15.66 7.66 16.32 8.32 17 9 C18.47730922 12.84100398 18.06745825 16.95250514 18 21 C17.67 21 17.34 21 17 21 C16.91363281 20.40832031 16.82726562 19.81664062 16.73828125 19.20703125 C15.75168512 13.65855945 14.56563473 10.65250778 10 7 C6.78424322 5.39212161 3.4875413 5.51788029 0 6 C-2.57816377 7.10769138 -4.64890752 8.43260501 -7 10 C-6.34 8.68 -5.68 7.36 -5 6 C-4.34 6 -3.68 6 -3 6 C-2.690625 5.195625 -2.38125 4.39125 -2.0625 3.5625 C-1 1 -1 1 0 0 Z " fill="#10385B" transform="translate(173,306)"/>
<path d="M0 0 C0.66 0 1.32 0 2 0 C0.65486964 5.54866272 -3.52613784 8.79977788 -8 12 C-12.18255731 14.17321973 -15.82341578 14.26870634 -20.5 14.25 C-22.43359375 14.25773437 -22.43359375 14.25773437 -24.40625 14.265625 C-27.7523621 14.01830367 -30.00689053 13.4505069 -33 12 C-33 11.67 -33 11.34 -33 11 C-32.40574219 11.02618408 -31.81148438 11.05236816 -31.19921875 11.0793457 C-28.46642258 11.18426935 -25.73405142 11.24862029 -23 11.3125 C-21.59814453 11.3753418 -21.59814453 11.3753418 -20.16796875 11.43945312 C-13.55874043 11.55499907 -9.05071605 10.41853251 -4 6 C-3.67 5.34 -3.34 4.68 -3 4 C-2.34 4 -1.68 4 -1 4 C-0.67 2.68 -0.34 1.36 0 0 Z " fill="#143959" transform="translate(345,335)"/>
<path d="M0 0 C3.29234294 0 5.37542032 0.45818036 7.88671875 2.63671875 C11.38331045 6.48516873 13.83522517 9.82322297 15 15 C14.34 15 13.68 15 13 15 C12.525625 14.175 12.05125 13.35 11.5625 12.5 C11.046875 11.675 10.53125 10.85 10 10 C9.01 10 8.02 10 7 10 C6.34 8.68 5.68 7.36 5 6 C4.34 6 3.68 6 3 6 C3 5.01 3 4.02 3 3 C2.01 2.67 1.02 2.34 0 2 C0 1.34 0 0.68 0 0 Z " fill="#10395A" transform="translate(334,301)"/>
<path d="M0 0 C0.99 0.99 1.98 1.98 3 3 C0.82373177 13.9004312 0.82373177 13.9004312 -2.75 17.1875 C-6.53664156 19.29928087 -8.72849785 19.57500991 -13 19 C-13.66 18.34 -14.32 17.68 -15 17 C-13.948125 17.061875 -12.89625 17.12375 -11.8125 17.1875 C-7.65485126 16.98302547 -6.18543722 16.59864615 -3 14 C-1.74764463 10.61304663 -1.74764463 10.61304663 -1.1875 6.8125 C-0.95417969 5.54019531 -0.72085938 4.26789063 -0.48046875 2.95703125 C-0.32191406 1.98121094 -0.16335937 1.00539063 0 0 Z " fill="#0F3553" transform="translate(236,283)"/>
<path d="M0 0 C11.79533871 0.6552966 19.92133388 6.7229105 28 15 C29.35635067 16.64798921 30.69663636 18.30979327 32 20 C31.34 20.33 30.68 20.66 30 21 C29.54625 20.525625 29.0925 20.05125 28.625 19.5625 C27.06741796 17.90972192 27.06741796 17.90972192 25 17 C24.55527344 16.22785156 24.11054688 15.45570312 23.65234375 14.66015625 C18.5918115 6.51305824 8.78799654 3.43104372 0 1 C0 0.67 0 0.34 0 0 Z " fill="#173B5C" transform="translate(355,106)"/>
<path d="M0 0 C3.59006411 1.19668804 4.71380338 1.9763206 7 5 C7.92683389 8.29828595 8.50857983 11.61178722 9 15 C9.99 15.33 10.98 15.66 12 16 C13.125 18.4375 13.125 18.4375 14 21 C14.33 21.66 14.66 22.32 15 23 C11.31907735 21.55490797 10.05156422 19.91492508 8.203125 16.46484375 C7.71972656 15.57345703 7.23632812 14.68207031 6.73828125 13.76367188 C6.24714844 12.83103516 5.75601563 11.89839844 5.25 10.9375 C4.74339844 10.00099609 4.23679688 9.06449219 3.71484375 8.09960938 C0 1.18559426 0 1.18559426 0 0 Z " fill="#133756" transform="translate(206,277)"/>
<path d="M0 0 C1.98 0 3.96 0 6 0 C6.33 0.99 6.66 1.98 7 3 C6.34 3 5.68 3 5 3 C5.33 3.66 5.66 4.32 6 5 C8.52733235 5.65555119 8.52733235 5.65555119 11 6 C11 6.33 11 6.66 11 7 C3.89945397 6.74319906 -1.09755529 6.06612857 -7 2 C-4.50935112 1.31292445 -2.62113708 1 0 1 C0 0.67 0 0.34 0 0 Z " fill="#0F385E" transform="translate(316,193)"/>
<path d="M0 0 C0.33 0.66 0.66 1.32 1 2 C-4.90909091 8.24675325 -4.90909091 8.24675325 -9 10 C-12.5625 10 -12.5625 10 -16 9 C-18.4375 6.4375 -18.4375 6.4375 -20 4 C-18.7315625 4.495 -18.7315625 4.495 -17.4375 5 C-12.60373597 6.4061859 -8.82434903 6.85136288 -4.1875 4.6875 C-1.77961482 3.01607792 -1.77961482 3.01607792 0 0 Z " fill="#143A5A" transform="translate(188,180)"/>
<path d="M0 0 C0.33 0 0.66 0 1 0 C1 7.92 1 15.84 1 24 C-2.53889727 20.46110273 -2.16223346 16.90542995 -2.1875 12.125 C-2.20167969 10.91070312 -2.21585937 9.69640625 -2.23046875 8.4453125 C-2.01047255 5.15655579 -1.41715618 2.94634052 0 0 Z " fill="#163959" transform="translate(301,162)"/>
<path d="M0 0 C1.4606285 2.64738916 2 3.89448334 2 7 C1.01 7.33 0.02 7.66 -1 8 C-0.7168444 10.08450717 -0.42314331 12.16758367 -0.125 14.25 C0.03742188 15.41015625 0.19984375 16.5703125 0.3671875 17.765625 C0.83178525 20.91983754 0.83178525 20.91983754 2.1328125 23.234375 C3 25 3 25 2 28 C-2.55738377 20.87908786 -2.8318234 14.33757869 -2 6 C-1.39717336 3.97984048 -0.74876011 1.9707366 0 0 Z " fill="#1D3B55" transform="translate(301,311)"/>
<path d="M0 0 C0 0.33 0 0.66 0 1 C-1.65 1 -3.3 1 -5 1 C-5.06058594 1.88042969 -5.12117188 2.76085937 -5.18359375 3.66796875 C-5.26738281 4.82941406 -5.35117187 5.99085938 -5.4375 7.1875 C-5.51871094 8.33605469 -5.59992187 9.48460937 -5.68359375 10.66796875 C-5.95403812 13.51598171 -6.37521747 16.21210482 -7 19 C-7.33 19 -7.66 19 -8 19 C-8 13.06 -8 7.12 -8 1 C-5.29120665 -0.35439668 -2.99066732 -0.06501451 0 0 Z " fill="#113859" transform="translate(57,330)"/>
<path d="M0 0 C1.32 0.33 2.64 0.66 4 1 C3.43410156 1.42410156 2.86820312 1.84820312 2.28515625 2.28515625 C-2.83255897 6.16830324 -2.83255897 6.16830324 -5 11.9375 C-5 12.948125 -5 13.95875 -5 15 C-5.99 15.33 -6.98 15.66 -8 16 C-7.08404986 9.03562051 -5.02193351 4.9113878 0 0 Z " fill="#14385A" transform="translate(293,241)"/>
<path d="M0 0 C6.6 0 13.2 0 20 0 C16.27933528 2.48044315 13.13459526 2.44381173 8.8125 2.625 C8.06291016 2.66367188 7.31332031 2.70234375 6.54101562 2.7421875 C4.69440801 2.83628216 2.8472381 2.91922319 1 3 C0.67 2.01 0.34 1.02 0 0 Z " fill="#0D3558" transform="translate(60,241)"/>
<path d="M0 0 C0.91120605 0.01047363 1.82241211 0.02094727 2.76123047 0.03173828 C3.74736328 0.03818359 4.73349609 0.04462891 5.74951172 0.05126953 C7.29832031 0.07640625 7.29832031 0.07640625 8.87841797 0.10205078 C9.91869141 0.11107422 10.95896484 0.12009766 12.03076172 0.12939453 C14.60520889 0.15301331 17.17920009 0.18594929 19.75341797 0.22705078 C20.08341797 1.21705078 20.41341797 2.20705078 20.75341797 3.22705078 C20.09341797 3.88705078 19.43341797 4.54705078 18.75341797 5.22705078 C18.75341797 4.23705078 18.75341797 3.24705078 18.75341797 2.22705078 C11.16341797 2.22705078 3.57341797 2.22705078 -4.24658203 2.22705078 C-2.24658203 0.22705078 -2.24658203 0.22705078 0 0 Z " fill="#0F3554" transform="translate(311.24658203125,392.77294921875)"/>
<path d="M0 0 C2.56405158 2.22961007 3.39410881 3.67903034 4 7 C4.11650058 9.0184403 4.1749736 11.04073921 4.1875 13.0625 C4.20167969 14.10535156 4.21585937 15.14820313 4.23046875 16.22265625 C4 19 4 19 2 22 C2.02320313 21.01257813 2.04640625 20.02515625 2.0703125 19.0078125 C2.08835937 17.72648437 2.10640625 16.44515625 2.125 15.125 C2.14820313 13.84882813 2.17140625 12.57265625 2.1953125 11.2578125 C2.35641524 7.91406662 2.35641524 7.91406662 0 6 C-0.6875 4 -0.6875 4 -1 2 C-0.67 1.34 -0.34 0.68 0 0 Z " fill="#143958" transform="translate(346,161)"/>
<path d="M0 0 C0.66 0.66 1.32 1.32 2 2 C0.14375 1.938125 0.14375 1.938125 -1.75 1.875 C-6.22077413 1.84867562 -6.22077413 1.84867562 -10 4 C-11.22332313 6.29306889 -12.09257832 8.54996148 -13 11 C-13.33 11 -13.66 11 -14 11 C-13.76928323 7.0009094 -13.56356875 4.66603579 -10.9375 1.5625 C-6.91688779 -0.57612352 -4.52117928 -0.44470616 0 0 Z " fill="#173956" transform="translate(251,197)"/>
<path d="M0 0 C0.33 0 0.66 0 1 0 C1.43753595 6.85472995 0.37384854 13.219206 -4.1875 18.5625 C-4.785625 19.036875 -5.38375 19.51125 -6 20 C-5.80664062 19.35933594 -5.61328125 18.71867187 -5.4140625 18.05859375 C-4.21212734 14.06602696 -3.01138786 10.0742935 -1.875 6.0625 C-1.293889 4.02861151 -0.66890899 2.00672697 0 0 Z " fill="#153A55" transform="translate(202,171)"/>
<path d="M0 0 C0.33 0 0.66 0 1 0 C1 6.6 1 13.2 1 20 C-2.31243305 20.82810826 -4.65976579 21.09278428 -8 21 C-5.35261084 19.5393715 -4.10551666 19 -1 19 C-0.67 12.73 -0.34 6.46 0 0 Z " fill="#0D385A" transform="translate(106,310)"/>
<path d="M0 0 C-2.39097599 1.195488 -3.55006887 0.94973661 -6.1875 0.75 C-11.55412446 0.6457937 -13.98808999 2.5856085 -18 6 C-14.83076923 -0.56483516 -14.83076923 -0.56483516 -11.375 -2.375 C-6.69126737 -3.24235789 -4.30750015 -1.93094834 0 0 Z " fill="#163B5B" transform="translate(331,311)"/>
<path d="M0 0 C1.55403686 2.93163286 2.69801632 5.83365224 3.6875 9 C3.95949219 9.845625 4.23148437 10.69125 4.51171875 11.5625 C5.02468085 14.1232068 4.84216387 15.55828998 4 18 C2.50830435 14.37731056 1.2144724 10.72438203 0 7 C-0.33 6.01 -0.66 5.02 -1 4 C-0.5625 1.8125 -0.5625 1.8125 0 0 Z " fill="#14395B" transform="translate(259,214)"/>
<path d="M0 0 C0.33 0.66 0.66 1.32 1 2 C-1.19566645 8.47143795 -1.19566645 8.47143795 -4.1875 10.4375 C-5.0846875 10.7159375 -5.0846875 10.7159375 -6 11 C-6 6.63204596 -5.77237852 6.25341007 -3 3.25 C-2.443125 2.63640625 -1.88625 2.0228125 -1.3125 1.390625 C-0.6628125 0.70226562 -0.6628125 0.70226562 0 0 Z " fill="#0E3756" transform="translate(120,118)"/>
<path d="M0 0 C3.44795223 1.53242321 6.2199038 3.44531701 9 6 C9.8125 8.25 9.8125 8.25 10 10 C10.66 10 11.32 10 12 10 C11.34 11.32 10.68 12.64 10 14 C9.69707031 13.49210938 9.39414062 12.98421875 9.08203125 12.4609375 C6.35097382 7.97360006 3.45901007 3.95315436 0 0 Z " fill="#153A58" transform="translate(362,130)"/>
<path d="M0 0 C1 2 1 2 0.4375 5.75 C-0.13183179 9.64992275 0.44155125 12.33306176 2 16 C0.68 15.34 -0.64 14.68 -2 14 C-2 9.71 -2 5.42 -2 1 C-1.34 0.67 -0.68 0.34 0 0 Z " fill="#153855" transform="translate(165,316)"/>
<path d="M0 0 C3.35212973 3.08748791 5.85053527 5.51708756 7 10 C6.625 12.3125 6.625 12.3125 6 14 C5.566875 12.865625 5.13375 11.73125 4.6875 10.5625 C3.8521875 8.7990625 3.8521875 8.7990625 3 7 C2.01 6.67 1.02 6.34 0 6 C0 4.02 0 2.04 0 0 Z " fill="#163C5B" transform="translate(195,156)"/>
<path d="M0 0 C0.33 0.99 0.66 1.98 1 3 C-4.00615239 7.88405111 -4.00615239 7.88405111 -8.75 8.4375 C-12 8 -12 8 -14 6 C-12.948125 6.061875 -11.89625 6.12375 -10.8125 6.1875 C-6.78646977 5.98949851 -5.14376421 5.42518953 -2 3 C-1.34 2.01 -0.68 1.02 0 0 Z " fill="#183B56" transform="translate(235,294)"/>
<path d="M0 0 C0.86625 0.495 0.86625 0.495 1.75 1 C4.19883862 2.27075898 4.19883862 2.27075898 8 2 C8.33 3.32 8.66 4.64 9 6 C7.68 6.33 6.36 6.66 5 7 C0 1.125 0 1.125 0 0 Z " fill="#123959" transform="translate(115,375)"/>
<path d="M0 0 C2.97 0.495 2.97 0.495 6 1 C5.773125 1.5775 5.54625 2.155 5.3125 2.75 C4.73494807 5.12172477 4.73494807 5.12172477 6.4375 7.25 C6.953125 7.8275 7.46875 8.405 8 9 C4.63704165 7.55873214 2.37072898 5.79407345 0 3 C0 2.01 0 1.02 0 0 Z " fill="#0D3C5E" transform="translate(304,337)"/>
<path d="M0 0 C0.66 0.66 1.32 1.32 2 2 C0.56988027 2.86646667 -0.86940619 3.71781829 -2.3125 4.5625 C-3.51326172 5.27599609 -3.51326172 5.27599609 -4.73828125 6.00390625 C-7 7 -7 7 -10 6 C-9.67 5.34 -9.34 4.68 -9 4 C-7.35 4 -5.7 4 -4 4 C-4 3.34 -4 2.68 -4 2 C-2.68 1.34 -1.36 0.68 0 0 Z " fill="#15395B" transform="translate(372,385)"/>
<path d="M0 0 C-0.99 1.485 -0.99 1.485 -2 3 C-5.3 2.67 -8.6 2.34 -12 2 C-12 1.67 -12 1.34 -12 1 C-10.37681021 0.63762737 -8.7513642 0.28534843 -7.125 -0.0625 C-6.22007812 -0.25972656 -5.31515625 -0.45695312 -4.3828125 -0.66015625 C-2 -1 -2 -1 0 0 Z " fill="#163A59" transform="translate(358,373)"/>
<path d="M0 0 C3.95820859 0.56545837 6.6659053 1.80902348 10 4 C7 5 7 5 5.17578125 4.22265625 C3.45052083 3.1484375 1.72526042 2.07421875 0 1 C0 0.67 0 0.34 0 0 Z " fill="#153A59" transform="translate(160,343)"/>
<path d="M0 0 C1.4606285 2.64738916 2 3.89448334 2 7 C0.68 7 -0.64 7 -2 7 C-1.34 4.69 -0.68 2.38 0 0 Z " fill="#103859" transform="translate(301,311)"/>
<path d="M0 0 C3.0916909 2.52956528 3.90931332 5.22454612 5 9 C2.5 6.75 2.5 6.75 0 4 C0 2.68 0 1.36 0 0 Z " fill="#163B59" transform="translate(217,256)"/>
<path d="M0 0 C3.79588866 0.54226981 5.47211993 2.20127563 8 5 C7.67 5.66 7.34 6.32 7 7 C6.566875 6.525625 6.13375 6.05125 5.6875 5.5625 C3.97690387 3.76313043 3.97690387 3.76313043 1 3 C0.67 2.01 0.34 1.02 0 0 Z " fill="#133959" transform="translate(205,241)"/>
</svg>
